<?xml version="1.0" encoding="utf-8"?>
<!-- Generator: Adobe Illustrator 16.0.0, SVG Export Plug-In . SVG Version: 6.00 Build 0)  -->
<!DOCTYPE svg PUBLIC "-//W3C//DTD SVG 1.1//EN" "http://www.w3.org/Graphics/SVG/1.1/DTD/svg11.dtd">
<svg version="1.1" id="Layer_1" xmlns="http://www.w3.org/2000/svg" xmlns:xlink="http://www.w3.org/1999/xlink" x="0px" y="0px"
	 width="500px" height="500px" viewBox="0 0 500 500" enable-background="new 0 0 500 500" xml:space="preserve">
<rect fill="#FFFFFF" stroke="#000000" stroke-miterlimit="10" width="500" height="500"/>
<g>
	<path d="M223.254,206.933c11.676-1.274,23.519,0.423,34.755,3.67l0.312,0.408c-0.67,4.365-1.565,8.688-2.445,13.021
		c-8.291-2.74-16.978-4.333-25.726-4.309c-2.747,0.075-5.732,0.328-7.978,2.107c-3.078,2.568-3.435,7.562-1.198,10.793
		c2.219,3.244,5.839,5.138,9.308,6.784c8.312,3.958,18.2,5.107,25.012,11.807c5.09,4.667,6.971,11.933,6.217,18.649
		c-0.471,6.688-3.254,13.588-8.925,17.506c-6.484,4.57-14.736,5.395-22.444,5.253c-10.034-0.212-20.086-1.339-29.834-3.791
		c0.622-4.75,1.256-9.497,1.982-14.229c10.693,3.012,22.197,5.844,33.244,3.073c5.9-1.224,8.353-9.536,3.633-13.464
		c-8.348-6.734-20.028-6.734-28.68-12.943c-6.142-4.261-10.8-11.262-10.725-18.92c0.154-6.504,1.845-13.381,6.459-18.186
		C210.657,209.584,217.08,207.651,223.254,206.933L223.254,206.933z"/>
	<path d="M305.161,207.235c12.47-1.935,25.117,0.163,37.203,3.305c-0.612,4.534-1.462,9.048-2.466,13.516
		c-8.517-2.895-17.522-4.453-26.53-4.305c-3.033,0.121-6.519,0.724-8.392,3.385c-2.369,3.491-1.606,8.515,1.521,11.307
		c9.352,8.585,23.748,7.938,32.901,16.823c5.262,4.877,7.041,12.49,6.094,19.428c-0.595,6.826-3.835,13.757-9.863,17.369
		c-8.1,4.998-18.037,4.85-27.207,4.344c-8.103-0.48-16.187-1.592-24.057-3.562c0.594-4.76,1.224-9.521,1.977-14.257
		c9.281,2.752,18.968,4.878,28.714,4.007c3.197-0.353,6.681-1.146,8.887-3.688c2.726-3.229,2.29-8.594-1.186-11.127
		c-8.551-6.387-20.166-6.448-28.715-12.868c-5.883-4.253-10.271-11.1-10.205-18.521c0.114-6.127,1.604-12.548,5.626-17.336
		C293.366,210.416,299.318,208.164,305.161,207.235L305.161,207.235z"/>
	<path d="M178.588,237.224c-1.8-10.052-7.11-19.971-16.145-25.241c-9.607-5.679-21.464-6.412-32.232-4.35
		c-3.857,0.826-7.608,2.204-11.002,4.227c-9.4,5.418-14.978,15.705-16.766,26.166c-1.999,11.975-1.427,24.813,3.827,35.925
		c4.284,9.201,12.988,16.053,22.885,18.24c10.35,2.324,21.714,1.748,31.268-3.141c8.215-4.178,14.049-12.107,16.721-20.818
		C180.239,258.238,180.376,247.469,178.588,237.224z M155.83,272.242c-2.963,5.064-8.941,7.477-14.612,7.449
		c-5.538,0.211-11.575-1.498-15.004-6.119c-4.364-5.952-4.878-13.67-5.138-20.799c-0.031-7.811-0.075-16.007,3.28-23.237
		c2.104-4.615,6.582-7.944,11.592-8.728c6.534-1.141,14.348-0.121,18.724,5.402c4.527,5.897,5.129,13.707,5.35,20.866
		C160.062,255.557,160.233,264.674,155.83,272.242z"/>
	<path d="M24.581,208.465c19.125-0.138,38.255-0.015,57.385-0.063c0.335,4.568,0.383,9.153,0.555,13.729
		c-12.663,0.178-25.333,0.04-38,0.064c-0.115,7.864-0.229,15.75,0.066,23.609c11.134,0,22.287-0.181,33.43,0.092
		c-0.076,4.544,0.008,9.086-0.058,13.631c-11.165,0.14-22.335-0.045-33.504,0.088c-0.088,10.513,0.048,21.031-0.075,31.554
		c-6.6,0.011-13.199,0.026-19.791-0.015C24.572,263.587,24.589,236.026,24.581,208.465L24.581,208.465z"/>
	<path d="M371.439,208.465c6.803-0.245,13.62-0.063,20.434-0.105c0.054,27.596,0.057,55.207,0,82.806
		c-6.793,0-13.591,0.088-20.376-0.053C371.413,263.564,371.528,236.018,371.439,208.465L371.439,208.465z"/>
	<path d="M421.896,208.516c6.807-0.099,13.615-0.082,20.419-0.018c0.058,22.875-0.04,45.75,0.05,68.619
		c11.021,0.088,22.035-0.031,33.055,0.066c-0.163,4.639-0.445,9.277-0.644,13.93c-17.61,0.132-35.228,0.057-52.847,0.043
		C421.838,263.604,421.912,236.057,421.896,208.516L421.896,208.516z"/>
</g>
</svg>
