<?xml version="1.0" encoding="utf-8"?>
<!-- Generator: Adobe Illustrator 16.0.0, SVG Export Plug-In . SVG Version: 6.00 Build 0)  -->
<!DOCTYPE svg PUBLIC "-//W3C//DTD SVG 1.1//EN" "http://www.w3.org/Graphics/SVG/1.1/DTD/svg11.dtd">
<svg version="1.1" id="Layer_1" xmlns="http://www.w3.org/2000/svg" xmlns:xlink="http://www.w3.org/1999/xlink" x="0px" y="0px"
	 width="500px" height="500px" viewBox="0 0 500 500" enable-background="new 0 0 500 500" xml:space="preserve">
<rect fill="#FFFFFF" stroke="#000000" stroke-miterlimit="10" width="500" height="500"/>
<g>
	<polygon points="31.09,333.893 31.09,322.473 41.976,322.473 41.976,333.893 47.633,333.893 47.633,307.886 41.91,307.886 
		41.91,318.15 31.09,318.15 31.09,307.886 25.443,307.886 25.443,333.893 	"/>
	<path d="M97.646,307.877v14.125c0,4.396-0.134,8.324-5.677,8.324c-5.534,0-5.658-3.928-5.658-8.324v-14.125h-5.83v16.285
		c0,6.92,5.104,10.264,11.488,10.264c6.384,0,11.506-3.344,11.506-10.264v-16.285H97.646z"/>
	<path d="M153.993,324.334v5.268c-1.414,0.459-2.82,0.793-4.999,0.793c-5.361,0-7.656-3.643-7.656-9.521
		c0-5.856,2.083-9.499,7.092-9.499c3.345,0,5.437,2.12,5.437,4.426h5.754c0-5.134-4.559-8.458-11.459-8.458
		c-5.447,0-12.835,3.201-12.835,13.531c0,10.342,7.083,13.552,13.408,13.552c5.41,0,8.907-1.126,10.915-2.006v-12.406h-10.8v4.32
		H153.993z"/>
	<path d="M417.363,315.15c0-5.267-5.209-8.164-10.074-8.164c-4.892,0-10.205,2.945-10.205,8.164c0,3.727,2.685,5.752,6.402,6.804
		c1.146,0.334,3.134,0.966,4.129,1.231c3.574,0.994,4.807,1.94,4.807,4.072c0,2.887-2.781,3.794-4.464,3.794
		c-4.252,0-5.763-2.456-5.763-5.379h-5.647c0,5.771,4.263,9.078,11.41,9.078c5.487,0,10.532-3.002,10.532-8.287
		c0-4.08-3.114-6.356-7.167-7.53c-1.404-0.41-2.753-0.744-4.11-1.176c-3.163-0.994-4.511-1.775-4.511-3.756
		c0-1.824,1.377-3.393,4.464-3.393s4.616,1.968,4.616,4.539h5.581V315.15z"/>
	<path d="M473.1,315.15c0-5.267-5.198-8.164-10.071-8.164c-4.896,0-10.197,2.945-10.197,8.164c0,3.727,2.684,5.752,6.393,6.804
		c1.166,0.334,3.136,0.966,4.13,1.231c3.582,0.994,4.824,1.94,4.824,4.072c0,2.887-2.791,3.794-4.472,3.794
		c-4.272,0-5.765-2.456-5.765-5.379h-5.647c0,5.771,4.254,9.078,11.412,9.078c5.485,0,10.521-3.002,10.521-8.287
		c0-4.08-3.104-6.356-7.168-7.53c-1.403-0.41-2.753-0.744-4.107-1.176c-3.155-0.994-4.511-1.775-4.511-3.756
		c0-1.824,1.386-3.393,4.473-3.393c3.076,0,4.605,1.968,4.605,4.539h5.581V315.15z"/>
	<path d="M204.606,334.693c8.888,0,12.902-5.982,12.902-13.81c0-7.817-4.014-13.811-12.902-13.811s-12.911,5.991-12.911,13.811
		C191.695,328.711,195.718,334.693,204.606,334.693 M204.606,311.164c5.678,0,6.766,5.17,6.766,9.721
		c0,4.559-1.088,9.721-6.766,9.721c-5.696,0-6.775-5.162-6.775-9.721C197.831,316.334,198.91,311.164,204.606,311.164"/>
	<path d="M294.289,334.148c5.312,0,10.092-2.543,10.092-7.33c0-3.965-3.145-6.289-6.251-6.519c2.181-0.276,5.038-2.56,5.038-5.802
		c0-4.691-3.604-6.88-9.156-6.88h-11.457v26.53H294.289L294.289,334.148z M288.21,330.098v-7.625h5.123
		c2.522,0,4.674,0.754,4.674,3.744c0,2.877-2.274,3.881-4.674,3.881H288.21z M288.23,318.484v-6.803h5.246
		c2.312,0,3.698,1.498,3.698,3.469c0,2.035-1.864,3.334-3.938,3.334H288.23z"/>
	<path d="M350.351,334.816c8.974,0,13.036-6.047,13.036-13.951c0-7.903-4.062-13.954-13.036-13.954
		c-8.975,0-13.034,6.051-13.034,13.954C337.315,328.77,341.376,334.816,350.351,334.816 M350.351,311.029
		c5.829,0,6.938,5.172,6.938,9.836c0,4.673-1.109,9.845-6.938,9.845c-5.831,0-6.938-5.172-6.938-9.845
		C343.412,316.201,344.52,311.029,350.351,311.029"/>
	<path d="M374.204,247.096c1.185,13.39-4.721,38.341-42.634,39.899c-16.772,0.688-37.826-4.529-46.17-8.399v-32.169h4.188
		c0.898,3.946,8.791,33.697,36.506,35.036c16.074,0.744,28.309-5.982,28.613-19.363c0.363-15.481-16.8-20.824-32.271-27.008
		c-17.479-6.977-34.396-13.896-36.748-32.829c-2.771-22.047,17.662-37.052,41.037-36.096c12.884,0.526,25.853,3.689,35.763,7.713
		v27.103h-4.127c-2.353-14.736-11.24-28.681-31.367-29.922c-11.744-0.736-22.497,3.65-22.515,16.447
		c0,12.729,21.35,17.996,36.812,24.111C357.011,217.87,372.34,226.423,374.204,247.096"/>
	<path d="M480.104,247.096c1.205,13.39-4.721,38.341-42.633,39.899c-16.763,0.688-37.815-4.529-46.158-8.399v-32.169h4.185
		c0.899,3.946,8.793,33.697,36.499,35.036c16.073,0.744,28.316-5.982,28.612-19.363c0.374-15.481-16.801-20.824-32.272-27.008
		c-17.471-6.977-34.396-13.896-36.738-32.829c-2.771-22.047,17.653-37.052,41.038-36.096c12.883,0.526,25.842,3.689,35.763,7.713
		v27.103h-4.129c-2.359-14.736-11.248-28.681-31.376-29.922c-11.727-0.736-22.507,3.65-22.507,16.447
		c0,12.729,21.341,17.996,36.824,24.111C462.912,217.87,478.241,226.423,480.104,247.096"/>
	<path d="M144.091,226.834c0-34.042,27.61-61.651,61.671-61.651c34.071,0,61.673,27.609,61.673,61.651
		c0,34.052-27.603,61.643-61.673,61.643C171.702,288.477,144.091,260.886,144.091,226.834 M205.743,283.298
		c24.199-0.315,32.542-31.108,32.522-56.55c0-25.517-10.521-56.777-32.522-56.777c-23.185-0.076-32.569,31.271-32.531,56.777
		C173.259,252.189,181.631,283.613,205.743,283.298"/>
	<path d="M30.326,275.613c0,3.46-3.918,5.18-7.692,5.103h-2.877v4.406h62.75c22.115,0,45.797-10.293,46.035-32.989
		c0.316-25.986-26.329-30.545-34.643-31.252c13.112-2.122,28.614-13.084,27.887-28.661c-0.784-16.668-18.436-24.447-35.131-24.428
		l-66.192,0.076v4.473h3.345c2.513,0,6.518,0.717,6.518,4.405V275.613z M57.124,280.324v-56.31h15.558
		c17.49,0,26.626,12.329,27.333,26.387c0.87,16.896-11.583,29.923-27.409,29.923H57.124z M57.124,219.543v-47.202h13.122
		c12.844,0,23.252,8.094,23.883,22.697c0.554,13.896-9.978,24.505-23.099,24.505H57.124L57.124,219.543z"/>
</g>
</svg>
