<?xml version="1.0" encoding="utf-8"?>
<!-- Generator: Adobe Illustrator 16.0.0, SVG Export Plug-In . SVG Version: 6.00 Build 0)  -->
<!DOCTYPE svg PUBLIC "-//W3C//DTD SVG 1.1//EN" "http://www.w3.org/Graphics/SVG/1.1/DTD/svg11.dtd">
<svg version="1.1" id="Layer_1" xmlns="http://www.w3.org/2000/svg" xmlns:xlink="http://www.w3.org/1999/xlink" x="0px" y="0px"
	 width="500px" height="500px" viewBox="0 0 500 500" enable-background="new 0 0 500 500" xml:space="preserve">
<rect fill="#FFFFFF" stroke="#000000" stroke-miterlimit="10" width="500" height="500"/>
<g>
	<path d="M30.977,265.02l6.432-6.838c1.546-1.627,7.245-7.652,7.245-9.77c0-2.279-3.582-2.442-5.047-2.442v-1.873l8.384,0.408
		l8.141-0.408v1.873c-5.129,0.163-6.105,1.79-9.443,5.454l-8.792,9.85l18.398,17.991c2.523,2.28,3.174,3.744,6.594,4.314v1.872
		c-1.872-0.08-3.908-0.325-5.861-0.405l-5.943,0.405l-18.153-19.374l-1.954,1.953v5.944c0,6.351-0.896,9.199,6.676,9.687v1.873
		l-10.747-0.407c-3.581,0.082-7.081,0.324-10.826,0.407v-1.873c7.163-0.487,6.675-2.768,6.675-9.115v-37.937
		c0-2.197,0-7.326-1.058-9.116c-1.222-2.199-3.908-2.199-6.187-2.524v-1.872l15.467-3.012V265.02L30.977,265.02z M87.393,263.961
		c-6.106,2.769-15.142,6.27-15.142,14.246c0,5.372,4.884,8.467,9.932,8.467c5.862,0,11.396-3.176,15.875-6.84
		c0.977,3.827,4.314,6.84,8.222,6.84c3.582,0,7.082-3.257,8.629-6.432l-1.792-0.978c-1.058,1.304-2.035,3.095-3.907,3.095
		c-3.745,0-3.337-7.083-3.337-9.524v-15.793c0-10.989-4.884-13.757-15.468-13.757c-4.884,0-17.583,1.301-17.583,8.384
		c0,2.116,1.546,3.419,3.663,3.419c2.361,0,3.664-2.116,3.826-4.232c0.326-5.047,4.153-5.454,8.955-5.454
		c7.815,0,8.384,4.559,8.384,11.07c0,1.059,0.163,2.28-0.731,2.768L87.393,263.961L87.393,263.961z M97.649,277.393
		c-2.686,2.605-6.756,5.454-10.501,5.454c-3.908,0-6.105-3.337-6.105-6.92c0-7.651,10.827-11.396,16.526-14.164v15.629
		L97.649,277.393L97.649,277.393z M122.641,247.517v-1.709c4.802-2.768,9.605-6.593,11.641-12.048h1.464v11.233h10.909v2.605
		h-10.909v27.272c0,4.312,0.896,8.872,5.944,8.872c3.338,0,5.046-1.953,6.919-4.313l1.709,1.22
		c-1.709,4.56-6.512,6.106-11.071,6.106c-6.919,0-11.64-2.605-11.64-9.851v-29.387H122.641L122.641,247.517z M195.255,276.66
		c-2.85,3.826-7.164,7.083-12.049,7.083c-10.175,0-14.978-10.177-14.978-19.295l0.408-4.64h27.434c0.977,0,2.361,0.408,2.361-0.895
		c0-10.419-8.874-15.629-18.234-15.629c-12.456,0-21.573,10.827-21.573,22.875c0,12.293,9.769,20.515,21.654,20.515
		c7.163,0,12.536-2.524,17.013-8.06L195.255,276.66L195.255,276.66z M169.368,257.286c1.139-6.269,3.989-11.804,11.153-11.804
		c6.024,0,9.28,3.826,9.28,9.849c0,2.444-3.175,1.955-4.641,1.955H169.368z M239.051,286.104h-0.978l-0.406-13.677h1.954
		c1.546,6.188,4.803,12.211,11.884,12.211c4.232,0,7.979-2.116,7.979-6.756c0-5.455-5.537-7.651-9.606-9.771
		c-5.535-2.849-11.479-6.022-11.479-13.268c0-6.594,5.292-11.479,11.886-11.479c2.932,0,6.594,0.813,9.28,2.36l1.873-2.279h1.141
		l-0.164,11.967h-1.871c-1.711-4.802-3.826-9.851-9.852-9.851c-3.174,0-6.105,1.792-6.105,5.292c0,4.965,5.209,6.757,8.873,8.71
		c6.596,3.419,12.537,5.943,12.537,14.572c0,7.896-6.676,12.616-14.002,12.616c-3.583,0-7.652-1.139-10.501-3.417L239.051,286.104
		L239.051,286.104z M289.033,243.365c-4.395,1.058-9.117,2.28-13.92,2.931v1.954c3.094,0,5.617-0.325,6.432,3.092
		c0.488,2.2,0.488,8.875,0.488,11.562v37.528c0,6.349,0.57,8.709-6.594,9.198v1.873l11.479-0.408l10.664,0.408v-1.873
		c-8.061-0.408-7.406-2.851-7.406-9.769v-18.561c4.15,3.745,8.139,5.452,13.756,5.452c12.049,0,20.676-9.767,20.676-21.408
		c0-12.455-8.627-21.9-21.246-21.9c-6.188-0.08-10.584,2.769-14.328,7.817V243.365L289.033,243.365z M290.176,262.576
		c0-3.908,0-7.326,2.033-10.744c2.035-3.501,5.617-5.454,9.688-5.454c10.42,0,13.186,9.931,13.186,18.642
		c0,8.628-3.092,18.724-13.43,18.724c-3.42,0-7.164-1.222-9.361-3.827c-2.115-2.523-2.115-7.244-2.115-10.501V262.576
		L290.176,262.576z M351.635,263.961c-6.105,2.769-15.223,6.27-15.223,14.246c0,5.372,4.883,8.467,9.932,8.467
		c5.861,0,11.396-3.176,15.875-6.84c0.977,3.827,4.312,6.84,8.221,6.84c3.5,0,7.082-3.257,8.629-6.432l-1.791-0.978
		c-1.059,1.304-2.033,3.095-3.906,3.095c-3.746,0-3.338-7.083-3.338-9.524v-15.793c0-10.989-4.885-13.757-15.467-13.757
		c-4.885,0-17.586,1.301-17.586,8.384c0,2.116,1.549,3.419,3.664,3.419c2.361,0,3.664-2.116,3.826-4.232
		c0.326-5.047,4.152-5.454,8.955-5.454c7.816,0,8.383,4.559,8.383,11.07c0,1.059,0.164,2.28-0.73,2.768L351.635,263.961
		L351.635,263.961z M361.893,277.393c-2.688,2.605-6.756,5.454-10.502,5.454c-3.908,0-6.105-3.337-6.105-6.92
		c0-7.651,10.826-11.396,16.523-14.164v15.629L361.893,277.393L361.893,277.393z M436.785,283.579v-1.952
		c-3.094,0-5.617,0.162-6.92-3.176c-0.977-2.524-0.977-7.326-0.977-10.013v-48.355l-15.303,3.012v1.872
		c6.838,0.163,7.162,3.257,7.162,9.036v15.142c-3.418-3.99-8.385-5.942-13.676-5.942c-12.129,0-20.432,10.501-20.432,22.222
		c0,11.886,8.385,21.165,20.432,21.165c6.514,0,10.826-2.278,14.979-7.244c0.326,2.604,0.896,5.046,1.871,7.244L436.785,283.579
		L436.785,283.579z M420.748,269.74c0,7.571-2.768,14.409-11.396,14.409c-10.338,0-13.107-10.013-13.107-18.642
		c0-8.303,2.77-19.212,13.107-19.212c5.535,0,11.396,3.744,11.396,9.769V269.74z M481.314,276.66
		c-2.85,3.826-7.164,7.083-12.047,7.083c-10.176,0-14.98-10.177-14.98-19.295l0.408-4.64h27.434c0.977,0,2.361,0.408,2.361-0.895
		c0-10.419-8.873-15.629-18.236-15.629c-12.453,0-21.572,10.827-21.572,22.875c0,12.293,9.77,20.515,21.654,20.515
		c7.164,0,12.535-2.524,17.014-8.06L481.314,276.66L481.314,276.66z M455.59,257.286c1.139-6.269,3.988-11.804,11.152-11.804
		c6.025,0,9.281,3.826,9.281,9.849c0,2.444-3.174,1.955-4.641,1.955H455.59z M130.862,341.052c-1.139-1.628-2.034-2.197-4.069-2.278
		v-0.896l3.581,0.162c0.977,0,1.954-0.08,3.011-0.162l15.875,19.293v-10.42c0-1.628,0-4.233-0.326-5.78
		c-0.488-2.116-1.465-1.953-3.337-2.279v-0.896l4.151,0.163c1.303,0,2.605-0.082,3.989-0.163v0.896c-1.384,0.163-2.361,0-2.85,1.628
		c-0.408,1.22-0.408,5.047-0.408,6.594v16.118h-1.139c-0.814-0.977-1.628-2.034-2.442-3.094l-14.734-17.746v12.617
		c0,1.384,0,4.233,0.57,5.454c0.651,1.466,1.873,1.384,3.256,1.547v0.896c-1.383,0-2.849-0.082-4.314-0.163l-4.152,0.163v-0.896
		c1.464-0.163,2.85-0.243,3.255-1.873c0.326-1.384,0.326-3.745,0.326-5.128v-13.756L130.862,341.052z M166.518,345.204
		c0-1.221,0-3.989-0.407-4.967c-0.489-1.301-2.035-1.301-3.257-1.301v-0.977h18.642v5.697h-0.895
		c-0.733-4.396-2.605-4.64-6.594-4.64h-2.687c-1.139,0-0.977-0.162-0.977,1.547v8.872c5.129,0.245,5.863-1.873,6.105-4.558h0.896
		c0,1.709-0.082,3.419-0.163,5.047l0.163,4.641h-0.812c-0.489-3.908-2.524-4.152-6.107-4.152v6.187c0,1.14,0,2.849,0.652,3.744
		c0.977,1.304,3.337,1.386,4.803,1.304c3.908-0.081,6.431-0.57,6.919-5.048h0.896l-0.326,6.024h-20.352v-0.895
		c1.221,0,2.768,0,3.256-1.304c0.408-0.977,0.408-3.826,0.408-4.965v-10.258H166.518L166.518,345.204z M209.093,344.228
		l-3.012,10.177c-0.977,3.011-2.036,5.941-3.093,8.953h-1.22l-6.513-20.107c-0.327-0.895-0.814-2.849-1.384-3.5
		c-0.652-0.895-1.628-0.895-2.687-0.977v-0.896l5.372,0.163c1.873,0,3.745-0.081,5.536-0.163v0.896
		c-1.221,0.082-3.337,0.082-3.337,1.791c0,0.896,0.896,3.663,1.14,4.559l3.989,12.862l5.943-20.189h1.221l6.187,19.863l2.604-8.141
		c0.489-1.627,1.954-6.838,1.954-8.304c0-2.36-1.383-2.36-3.255-2.522v-0.896l4.069,0.164c1.304,0,2.605-0.082,3.908-0.164v0.896
		c-2.768-0.082-3.255,2.848-3.908,4.965l-6.186,19.7h-1.302L209.093,344.228L209.093,344.228z M260.949,357.822
		c0,3.582,0.082,3.745,3.744,4.071v0.894c-1.871,0-3.744-0.08-5.615-0.162l-5.781,0.162v-0.894c3.664-0.326,3.826-0.489,3.826-4.071
		v-4.642l-3.418-5.941c-0.408-0.733-3.258-6.432-4.559-7.734c-0.652-0.731-1.304-0.488-2.198-0.65v-0.895l5.128,0.162
		c1.791,0,3.5-0.082,5.291-0.162v0.895c-0.814,0-2.85-0.081-2.85,1.221c0,0.977,0.488,1.791,0.979,2.605l4.883,9.036l2.361-3.826
		c0.814-1.303,3.744-6.105,3.744-7.489c0-1.385-1.709-1.466-2.688-1.547v-0.895c1.385,0.08,2.688,0.08,3.99,0.162
		c1.221,0,2.441-0.082,3.664-0.162v0.895c-2.199,0.162-2.932,1.628-3.99,3.338l-6.512,10.745V357.822L260.949,357.822z
		 M290.744,363.113c7.57,0,13.594-5.291,13.594-13.024c0-7.408-6.268-12.619-13.514-12.619c-7.244,0-13.758,5.454-13.758,12.944
		C277.148,357.903,283.418,363.113,290.744,363.113 M290.662,338.529c6.594,0,8.955,6.187,8.955,11.804s-2.037,11.803-8.711,11.803
		c-6.84,0-9.199-5.86-9.199-11.722C281.707,344.879,284.15,338.529,290.662,338.529"/>
	<path d="M325.83,350.495c3.744-0.325,6.838-2.361,6.838-6.431c0-5.21-4.314-6.188-8.629-6.188c-1.547,0-3.176,0.082-4.803,0.163
		c-2.117,0-4.314-0.081-6.432-0.163v0.896c1.221,0,2.77-0.081,3.176,1.303c0.326,0.977,0.326,3.743,0.326,4.965v10.583
		c0,1.221,0,3.988-0.326,4.967c-0.406,1.303-1.955,1.303-3.176,1.303v0.894c1.873,0,3.744-0.08,5.617-0.162
		c1.791,0.082,3.582,0.082,5.291,0.162v-0.894c-1.221,0-2.768,0-3.176-1.303c-0.324-0.979-0.324-3.827-0.324-4.967v-4.396
		c1.955,0,1.873,0.243,3.094,1.628l6.186,7.734l1.793,2.197c0.895,0,1.871-0.081,2.848-0.163c1.141,0.082,2.281,0.082,3.338,0.163
		v-0.895c-1.871-0.325-2.441-0.814-3.662-2.199L325.83,350.495L325.83,350.495z M320.213,340.401c0-0.407-0.082-1.141,0.406-1.303
		c0.326-0.162,1.953,0,2.443,0c3.42,0,5.289,2.279,5.289,5.617c0,5.373-3.416,5.534-8.139,5.534V340.401L320.213,340.401z
		 M351.309,353.346v4.395c0,3.581,0.082,3.745,3.664,4.07v0.896c-1.791,0-3.664-0.082-5.453-0.163
		c-1.955,0.081-3.826,0.081-5.699,0.163v-0.896c1.223,0,2.768,0,3.258-1.303c0.406-0.976,0.406-3.826,0.406-4.965V344.96
		c0-1.222,0-3.988-0.406-4.966c-0.49-1.302-2.035-1.302-3.258-1.302v-0.895l5.373,0.162c1.953,0,3.908-0.082,5.781-0.162v0.895
		c-3.582,0.325-3.664,0.487-3.664,4.069v9.118c1.791-1.872,9.035-9.524,9.035-11.724c0-1.546-1.709-1.383-2.85-1.464v-0.895
		c1.465,0.08,2.934,0.08,4.477,0.162c1.303,0,2.605-0.082,3.91-0.162v0.895c-2.037,0-2.525,0.487-3.828,2.116l-6.023,7.408
		l5.211,5.941c0.406,0.57,4.395,5.699,6.186,7.001c0.732,0.571,1.303,0.489,2.199,0.571v0.895c-1.953,0-3.99-0.081-5.943-0.163
		l-5.699,0.163v-0.895c0.652,0,3.176,0.08,3.176-1.142c0-0.813-2.361-3.581-2.932-4.231l-4.557-5.536L351.309,353.346z
		 M281.057,169.856c0,0,0.977-9.281-17.91-22.061c0,0-9.199-6.024-13.432-10.827c-0.162-0.163-0.244-0.326-0.487-0.326
		c-0.245,0-0.325,0.163-0.488,0.326c-4.233,4.803-13.433,10.827-13.433,10.827c-18.886,12.78-17.909,22.061-17.909,22.061
		c-0.814,7.978,5.208,15.712,13.269,15.712c6.432,0,11.071-3.663,12.78-5.292l0.733-0.732c0.326-0.408,0.732-0.814,0.813-0.978
		c0,0,0.245,0.244,0.245,0.326c0.162,0.326,0.324,0.651,0.324,0.977c0.815,6.675-7.488,15.059-9.932,17.339
		c0,0-0.65,0.733-0.65,1.71v1.464h28.411v-1.464c0-0.978-0.65-1.71-0.65-1.71c-2.443-2.28-10.746-10.664-9.934-17.339
		c0.084-0.326,0.164-0.733,0.326-0.977l0.244-0.326c0.082,0.244,0.488,0.652,0.814,0.978l0.732,0.732
		c1.709,1.629,6.35,5.292,12.779,5.292C275.848,185.487,281.789,177.834,281.057,169.856L281.057,169.856z"/>
</g>
</svg>
