<?xml version="1.0" encoding="utf-8"?>
<!-- Generator: Adobe Illustrator 16.0.0, SVG Export Plug-In . SVG Version: 6.00 Build 0)  -->
<!DOCTYPE svg PUBLIC "-//W3C//DTD SVG 1.1//EN" "http://www.w3.org/Graphics/SVG/1.1/DTD/svg11.dtd">
<svg version="1.1" id="Layer_1" xmlns="http://www.w3.org/2000/svg" xmlns:xlink="http://www.w3.org/1999/xlink" x="0px" y="0px"
	 width="500px" height="500px" viewBox="0 0 500 500" enable-background="new 0 0 500 500" xml:space="preserve">
<rect fill="#FFFFFF" stroke="#000000" stroke-miterlimit="10" width="500" height="500"/>
<path fill-rule="evenodd" clip-rule="evenodd" fill="#231F20" d="M35.073,251.898l11.641-16.178h4.291v28.442h-4.893v-19.894
	l-11.04,15.201l-11.039-15.201v19.894h-4.875V235.72h4.348L35.073,251.898L35.073,251.898z M91.151,256.852H75.647l-3.886,7.311
	h-5.359L81.5,235.72h3.802l15.26,28.442h-5.407L91.151,256.852L91.151,256.852z M78.012,252.408h10.821l-5.43-10.057L78.012,252.408
	L78.012,252.408z M136.854,252.028l7.481,12.134h-5.542l-7.361-11.889h-10.423v11.889h-4.92V235.72h17.507
	c2.538,0,5.162,0.503,7.172,2.152c1.885,1.537,2.691,3.629,2.691,6.038c0,2.094-0.672,3.938-2.087,5.487
	C140.133,250.75,138.592,251.594,136.854,252.028L136.854,252.028z M121.009,247.828h12.351c1.258,0,2.781-0.184,3.8-0.998
	c0.893-0.706,1.188-1.71,1.188-2.821c0-1.127-0.322-2.113-1.202-2.849c-0.982-0.83-2.358-1.043-3.604-1.043h-12.533V247.828
	L121.009,247.828z M185.677,253.951l3.979,2.736l-0.289,0.509c-1.391,2.437-3.326,4.358-5.792,5.696
	c-2.573,1.389-5.389,1.982-8.301,1.982c-4.302,0-8.188-1.242-11.354-4.193c-3.07-2.871-4.506-6.48-4.506-10.675
	c0-4.2,1.438-7.818,4.524-10.688c3.164-2.948,7.057-4.194,11.336-4.194c2.689,0,5.293,0.522,7.714,1.711
	c2.324,1.142,4.243,2.783,5.712,4.915l0.369,0.536l-4.174,2.744l-0.337-0.587c-0.89-1.557-2.152-2.731-3.738-3.567
	c-1.728-0.906-3.601-1.305-5.546-1.305c-2.979,0-5.619,0.889-7.777,2.963c-2.11,2.04-3.054,4.561-3.054,7.472
	c0,2.916,0.938,5.437,3.053,7.474c2.161,2.067,4.804,2.951,7.778,2.951c2.071,0,4.044-0.449,5.839-1.492
	c1.808-1.059,3.18-2.587,4.222-4.395L185.677,253.951L185.677,253.951z M222.43,251.195h4.921v4.873c0,1.422,0.504,2.546,1.77,3.26
	c1.704,0.964,4.593,1.104,6.504,1.104c1.691,0,4.564-0.15,5.915-1.323c1.292-1.123,1.474-3.579,1.474-5.157V235.72h4.921v19.134
	c0,2.901-0.687,5.872-3.098,7.714c-2.577,1.973-6.753,2.307-9.876,2.307c-3.021,0-6.766-0.35-9.332-2.102
	c-2.275-1.558-3.198-3.895-3.198-6.605V251.195L222.43,251.195z M286.996,256.852h-15.503l-3.885,7.311h-5.359l15.096-28.442h3.803
	l15.261,28.442h-5.407L286.996,256.852L286.996,256.852z M273.857,252.408h10.822l-5.43-10.057L273.857,252.408L273.857,252.408z
	 M336.015,253.951l3.978,2.736l-0.29,0.509c-1.391,2.437-3.322,4.358-5.789,5.696c-2.574,1.389-5.39,1.982-8.301,1.982
	c-4.302,0-8.187-1.242-11.354-4.193c-3.07-2.871-4.506-6.48-4.506-10.675c0-4.2,1.436-7.818,4.523-10.688
	c3.166-2.948,7.056-4.194,11.337-4.194c2.688,0,5.293,0.522,7.714,1.711c2.322,1.142,4.242,2.783,5.712,4.915l0.367,0.536
	l-4.174,2.744l-0.335-0.587c-0.891-1.555-2.151-2.731-3.739-3.567c-1.728-0.906-3.601-1.305-5.545-1.305
	c-2.979,0-5.62,0.889-7.776,2.963c-2.112,2.04-3.056,4.561-3.056,7.472c0,2.916,0.938,5.437,3.053,7.474
	c2.162,2.072,4.804,2.951,7.779,2.951c2.069,0,4.042-0.449,5.839-1.492c1.806-1.064,3.179-2.587,4.22-4.395L336.015,253.951
	L336.015,253.951z M371.493,264.875c-4.297,0-8.191-1.242-11.354-4.193c-3.07-2.871-4.506-6.48-4.506-10.675
	c0-4.2,1.438-7.818,4.526-10.688c3.162-2.948,7.055-4.194,11.334-4.194c4.304,0,8.206,1.244,11.389,4.21
	c3.093,2.865,4.551,6.469,4.551,10.671c0,4.205-1.447,7.809-4.533,10.675C379.711,263.633,375.807,264.875,371.493,264.875
	L371.493,264.875z M371.493,260.432c2.973,0,5.617-0.884,7.776-2.951c2.117-2.037,3.053-4.559,3.053-7.474
	c0-2.917-0.936-5.451-3.046-7.488c-2.151-2.08-4.812-2.947-7.783-2.947c-2.979,0-5.62,0.889-7.777,2.963
	c-2.111,2.04-3.053,4.561-3.053,7.472c0,2.916,0.937,5.437,3.051,7.474C365.876,259.548,368.52,260.432,371.493,260.432
	L371.493,260.432z M430.81,248.034c1.144,0.729,2.162,1.64,2.918,2.786c0.899,1.363,1.309,2.896,1.309,4.533
	c0,2.587-0.898,4.804-2.908,6.461c-2.167,1.777-4.934,2.348-7.675,2.348h-18.971V235.72h18.042c2.359,0,5.025,0.364,6.948,1.845
	c1.785,1.366,2.479,3.351,2.479,5.554c0,1.125-0.227,2.222-0.769,3.211C431.823,246.991,431.363,247.56,430.81,248.034
	L430.81,248.034z M410.4,259.768h14.772c1.288,0,2.554-0.285,3.512-1.198c0.917-0.868,1.238-2.027,1.238-3.265
	c0-1.244-0.332-2.387-1.24-3.256c-0.959-0.909-2.217-1.203-3.51-1.203H410.4V259.768L410.4,259.768z M410.4,246.449h13.444
	c1.058,0,2.286-0.16,3.146-0.837c0.729-0.576,0.985-1.38,0.985-2.291c0-0.905-0.214-1.795-0.945-2.388
	c-0.837-0.674-2.152-0.815-3.186-0.815H410.4V246.449L410.4,246.449z M474.142,252.638c-1.326-0.954-3.136-1.308-4.738-1.423
	c-0.732-0.075-1.48-0.115-2.22-0.154c-2.868-0.18-7.438-0.51-10.108-1.624c-1.301-0.582-2.521-1.398-3.375-2.554
	c-0.792-1.067-1.191-2.286-1.191-3.614c0-2.585,1.346-4.515,3.458-5.921c2.523-1.686,5.603-2.224,8.588-2.224
	c2.536,0,5.033,0.387,7.452,1.146c2.491,0.778,4.828,1.924,6.985,3.392l0.552,0.375l-2.914,3.839l-0.504-0.372
	c-1.7-1.256-3.548-2.27-5.55-2.951c-1.933-0.656-3.927-0.982-5.967-0.982c-1.755,0-3.627,0.253-5.188,1.114
	c-0.941,0.523-1.827,1.274-1.827,2.434c0,0.352,0.085,0.682,0.26,0.986c0.207,0.361,0.551,0.668,0.878,0.906
	c1.565,1.086,5.662,1.377,7.515,1.482c1.438,0.079,2.889,0.167,4.319,0.322c2.671,0.285,5.345,1.056,7.439,2.808
	c1.822,1.532,2.836,3.485,2.836,5.882c0,2.94-1.471,5.162-3.862,6.801c-2.854,1.951-6.355,2.57-9.756,2.57
	c-2.831,0-5.657-0.363-8.361-1.213c-2.648-0.824-5.112-2.092-7.369-3.699l-0.521-0.375l2.888-3.959l0.512,0.369
	c1.945,1.398,4.06,2.547,6.326,3.33c2.087,0.734,4.257,1.154,6.472,1.154c2.142,0,4.44-0.34,6.286-1.498
	c1.33-0.84,2.249-1.963,2.249-3.58C475.704,254.201,475.115,253.316,474.142,252.638L474.142,252.638z"/>
</svg>
