<?xml version="1.0" encoding="utf-8"?>
<!-- Generator: Adobe Illustrator 16.0.0, SVG Export Plug-In . SVG Version: 6.00 Build 0)  -->
<!DOCTYPE svg PUBLIC "-//W3C//DTD SVG 1.1//EN" "http://www.w3.org/Graphics/SVG/1.1/DTD/svg11.dtd">
<svg version="1.1" id="Layer_1" xmlns="http://www.w3.org/2000/svg" xmlns:xlink="http://www.w3.org/1999/xlink" x="0px" y="0px"
	 width="500px" height="500px" viewBox="0 0 500 500" enable-background="new 0 0 500 500" xml:space="preserve">
<rect fill="#FFFFFF" stroke="#000000" stroke-miterlimit="10" width="500" height="500"/>
<g>
	<path d="M28.494,285.662h-6.458c-0.539,0-1.886,0-1.886-0.809c0-0.535,0.27-0.809,1.078-1.078c5.922-1.887,7.266-5.113,7.266-9.686
		v-48.179c0-4.308-1.347-7.538-7.266-9.691c-0.808,0-1.078-0.539-1.078-0.809c0-1.075,1.347-0.808,1.886-0.808h53.289
		c12.111,0,22.071,9.689,22.071,21.799c0,12.113-9.96,21.799-22.071,21.799H48.41v16.42c0.272,4.305,1.617,7.264,7.27,9.148
		c0.808,0.271,1.075,0.541,1.075,1.078c0,0.809-1.344,0.809-1.884,0.809H28.494V285.662z M425.752,259.555h12.65l-12.65-21.533
		l-1.35-2.155l-11.299,23.688H425.752L425.752,259.555z M425.752,214.339h8.613l36.062,63.522c1.078,1.607,2.422,3.229,4.041,4.031
		c1.344,1.076,2.959,1.35,4.303,1.887c0.541,0.271,1.078,0.541,1.078,1.076c0,0.807-1.344,0.807-1.885,0.807h-32.027
		c-0.537,0-2.156,0-2.156-0.807c0-0.535,0.543-0.809,1.084-1.076c1.613-0.537,2.686-1.346,3.223-2.961
		c0.541-1.885,0-2.957-1.346-5.383c-1.828-3.887-3.711-7.744-5.648-11.574h-30.146l-0.268,0.535
		c-0.271,1.08-2.422,4.846-4.039,8.885c-2.15,4.305-2.959,5.381-2.424,7.535c0.273,1.613,1.615,2.424,3.229,2.959
		c0.541,0.271,0.812,0.543,0.812,1.078c0,0.809-1.35,0.809-1.885,0.809h-14.805c-0.537,0-1.887,0-1.887-0.809
		c0-0.535,0.273-0.809,1.078-1.078c1.35-0.535,2.959-0.809,4.305-1.887c1.615-0.803,2.965-2.422,4.037-4.031l1.887-4.041
		l20.453-42.792l-2.963-5.113c-2.688-4.308-5.381-7-8.342-8.614c-1.344-0.808-2.691-0.808-4.035-1.347
		c-0.809-0.269-1.078-0.539-0.809-1.078c0-0.539,0.535-0.269,0.809-0.539h19.65V214.339z M345.275,285.389h1.078
		c49.525,0,48.988-70.783,0-70.783h-40.639c-0.809,0-2.152-0.27-2.152,0.808c0,0.271,0.537,0.81,1.074,0.81
		c5.922,1.882,7.27,5.112,7.535,9.151v49.254c-0.266,4.305-1.613,7.264-7.535,9.15c-0.537,0.271-1.074,0.541-1.074,1.076
		c0,0.807,1.346,0.807,2.152,0.807h26.107v-0.271h13.453V285.389L345.275,285.389z M345.275,219.72
		c7.541,0,13.732,6.191,13.732,13.724v32.837c0,7.535-6.191,13.727-13.732,13.727h-13.457V219.72H345.275L345.275,219.72z
		 M242.734,259.555h12.649l-12.649-21.533l-1.345-2.155l-11.303,23.688H242.734L242.734,259.555z M242.734,214.339h8.881
		l36.066,63.522c0.807,1.607,2.154,3.229,3.77,4.031c1.344,1.076,2.963,1.35,4.576,1.887c0.537,0.271,1.072,0.541,1.072,1.076
		c0,0.807-1.613,0.807-2.148,0.807h-32.025c-0.541,0-1.885,0-1.885-0.807c0-0.535,0.266-0.809,1.072-1.076
		c1.35-0.537,2.691-1.346,2.963-2.961c0.537-1.885,0-2.957-1.076-5.383c-1.887-4.037-4.037-7.807-5.918-11.574h-30.153l-0.268,0.535
		c-0.27,1.08-2.155,4.846-4.038,8.885c-1.884,4.305-2.959,5.381-2.42,7.535c0.539,1.613,1.614,2.424,3.23,2.959
		c0.536,0.271,1.075,0.543,1.075,1.078c0,0.809-1.345,0.809-2.149,0.809h-14.539c-0.539,0-2.156,0-2.156-0.809
		c0-0.535,0.54-0.809,1.078-1.078c1.618-0.535,2.961-0.809,4.579-1.887c1.343-0.803,2.96-2.422,3.766-4.031l1.883-4.041
		l20.727-42.792l-2.961-5.113c-2.692-4.308-5.653-7-8.345-8.614c-1.616-0.808-2.691-0.808-4.308-1.347
		c-0.539-0.269-1.077-0.539-0.806-1.078c0.267-0.539,0.806-0.269,1.077-0.539h19.378V214.339z M153.916,261.439
		c6.191,2.15,13.727,2.688,19.646,0.809l23.418,20.186l1.883,1.613c0.272,0.273,0.272,0.535,0.272,0.809
		c0,0.807-1.348,0.807-1.886,0.807h-24.76l-18.571-15.34l-15.075-12.113V274.9c0.272,4.037,1.886,6.994,7.537,8.881
		c0.538,0.271,0.808,0.539,0.808,1.076c0,0.809-1.347,0.809-1.886,0.809h-32.567c-0.806,0-2.153,0-2.153-0.809
		c0-0.537,0.539-0.807,1.075-1.076c6.46-2.15,7.269-5.383,7.536-10.496v-46.568c-0.27-4.844-1.077-8.344-7.536-10.497
		c-0.539,0-1.075-0.539-1.075-0.809c0-1.075,1.347-0.808,2.153-0.808h52.483c11.99-0.051,21.75,9.628,21.801,21.618
		c0,0.06,0,0.121,0,0.181c0.051,11.989-9.627,21.748-21.615,21.799c-0.062,0-0.125,0-0.186,0h-16.956
		c0.809,1.613,2.692,2.156,4.306,2.965C153.107,261.168,153.377,261.439,153.916,261.439L153.916,261.439z M153.916,253.096h2.152
		c6.997,0,12.918-7.538,12.918-17.229c0-9.419-5.922-16.956-12.918-16.956h-17.227v34.185H153.916L153.916,253.096z M63.751,218.914
		H48.41v34.184h17.766c7.266,0,12.918-7.538,12.918-17.229c0-9.419-5.653-16.955-12.918-16.955H63.751L63.751,218.914z"/>
</g>
</svg>
