<?xml version="1.0" encoding="utf-8"?>
<!-- Generator: Adobe Illustrator 16.0.0, SVG Export Plug-In . SVG Version: 6.00 Build 0)  -->
<!DOCTYPE svg PUBLIC "-//W3C//DTD SVG 1.1//EN" "http://www.w3.org/Graphics/SVG/1.1/DTD/svg11.dtd">
<svg version="1.1" id="Layer_1" xmlns="http://www.w3.org/2000/svg" xmlns:xlink="http://www.w3.org/1999/xlink" x="0px" y="0px"
	 width="500px" height="500px" viewBox="0 0 500 500" enable-background="new 0 0 500 500" xml:space="preserve">
<rect fill="#FFFFFF" width="500" height="500"/>
<g>
	<path fill="#231F20" d="M471.255,184.923c-4.896,0-8.848,3.95-8.848,8.802c0,4.897,3.95,8.848,8.848,8.848
		c4.875,0,8.802-3.951,8.802-8.848C480.057,188.873,476.13,184.923,471.255,184.923L471.255,184.923L471.255,184.923
		L471.255,184.923z M471.255,201.511c-4.297,0-7.763-3.465-7.763-7.785c0-4.274,3.466-7.74,7.763-7.74c4.275,0,7.74,3.466,7.74,7.74
		C478.995,198.046,475.53,201.511,471.255,201.511L471.255,201.511L471.255,201.511L471.255,201.511z"/>
	<path fill="#231F20" d="M475.786,191.415c0-0.831-0.369-1.71-1.108-2.125c-0.737-0.439-1.57-0.485-2.4-0.485l0,0h-4.299v9.865
		h1.202v-4.551h2.217l2.818,4.551h1.434l-2.979-4.551l0,0C474.425,194.072,475.786,193.356,475.786,191.415L475.786,191.415
		L475.786,191.415L475.786,191.415z M471.029,193.171h-1.85v-3.488h2.818l0,0c1.226,0,2.562,0.184,2.562,1.709
		C474.562,193.402,472.414,193.171,471.029,193.171L471.029,193.171L471.029,193.171L471.029,193.171z"/>
	<path fill="#231F20" d="M175.771,339.29l-57.513-28.084l0,0c-1.264-0.656-1.916-2.327-1.892-3.419l0,0l0.153-15.504l0,0
		c0.021-1.094,0.238-2.215,1.67-3.245c6.149-3.918,25.189-14.456,44.86-43.165c26.198-38.236,0-70.361-40.944-61.617
		c-36.362,7.767-73.383,27.458-89.44,38.162c-14.312,9.54-12.323,21.068-12.722,31.406c0.795,4.371,2.385,3.975,5.964-0.398
		c26.632-24.647,67.18-43.331,74.732-46.51c7.553-3.18,25.44-13.914,46.51-9.144c20.238,4.583,15.319,32.101,9.144,43.728
		c-6.759,12.723-26.038,31.205-34.784,35.777c-3.322,1.736-4.571,0-4.571-2.783l0,0l1.391-59.826l0,0
		c0-3.976-1.787-5.764-5.763-4.372l0,0l-6.36,3.179l0,0c-4.373,2.583-4.174,3.577-4.572,6.757l0,0l-0.963,68.97l0,0
		c-0.03,1.491-0.725,2.683-1.545,3.038l0,0L78.38,303.91l0,0c-4.77,2.386-3.577,5.963,0,7.154l0,0l16.696,7.951l0,0
		c3.975,1.59,5.167,2.78,5.167,6.758l0,0l-0.597,33.391l0,0c14.908-2.98,15.9-10.137,16.299-14.905l0,0v-10.138l0,0
		c0.397-2.385,1.789-3.18,3.776-2.783l0,0l48.496,23.455l0,0c4.373,1.984,6.759,1.191,9.939-4.373
		C181.335,344.854,181.733,342.07,175.771,339.29L175.771,339.29L175.771,339.29L175.771,339.29z"/>
	<path fill="#231F20" d="M260.525,255.037c-6.744,3.895-9.859,11.176-7.205,15.771c2.656,4.601,10.671,5.367,17.414,1.476
		c6.744-3.896,9.66-10.978,7.007-15.573C275.087,252.111,267.27,251.145,260.525,255.037L260.525,255.037L260.525,255.037
		L260.525,255.037z"/>
	<path fill="#231F20" d="M235.656,259.986c-1.832,2.234-5.365,9.043-7.354,13.217c-1.987,4.176-6.161,13.615-10.335,13.615
		c-4.413,0-4.969-10.93-4.969-14.907c0-3.974-2.386-4.57-3.577-4.371c-1.192,0.198-4.572,1.392-5.565,5.565
		c-0.994,4.174-6.361,22.262-12.323,22.262c-3.776,0-6.559-10.934-6.757-14.312c-0.201-3.38-1.79-6.16-5.169-6.16
		c-2.385,0-5.366,1.192-6.56,2.584c-1.191,1.393-1.391,3.576-7.751,2.187c-5.764-0.199-11.329,2.78-18.087,14.11
		c-4.068,6.822-7.373,19.533-1.192,24.646c5.764,4.772,15.9-3.774,18.882-7.354c2.981-3.576,5.565-6.16,6.758-8.148
		c1.191-1.986,2.386-1.787,2.981,0.199c0.596,1.988,3.975,9.738,8.348,9.539c4.373-0.196,9.938-3.575,16.497-15.104
		c1.192-2.385,2.981-2.186,3.379-0.199c0.397,1.987,2.981,8.547,7.354,8.547c4.174,0,8.817-6.631,11.13-10.532
		c1.59-2.687,3.976-1.394,3.976,1.19s-1.192,63.604-1.192,63.604c0,2.783,1.093,3.578,3.08,3.578l0,0h8.646l0,0
		c1.59,0,2.981-1.395,2.981-3.578l0,0l1.79-98.883l0,0C240.627,258.895,237.943,257.204,235.656,259.986L235.656,259.986
		L235.656,259.986L235.656,259.986z M168.079,298.943c-1.788,2.981-6.559,10.933-10.732,9.541
		c-2.187-1.193,0.729-9.145,2.187-11.928c2.186-4.173,8.594-10.818,11.528-9.143C173.844,289.005,169.869,295.963,168.079,298.943
		L168.079,298.943L168.079,298.943L168.079,298.943z"/>
	<path fill="#231F20" d="M470.926,237.98c-0.795,0.696-2.087,1.888-4.969,0.597c-4.97-1.987-5.366-11.331-7.95-19.875
		c-2.323-7.678-7.916-7.197-9.938-3.679l0,0l-6.063,9.74l0,0c-1.093,1.988-3.479,6.56-5.862,6.56c-2.782,0-1.54-3.978-1.393-7.95
		c0.101-2.683-1.59-6.062-4.373-6.062c-3.181,0-6.56,4.869-9.142,10.434c-1.81,3.892-6.461,18.782-12.323,18.782
		c-3.778,0-4.174-10.932-4.373-14.309c-0.199-3.379-1.391-7.553-4.771-7.553c-2.286,0-3.777,1.192-4.97,2.583
		c-1.192,1.392-1.391,2.584-5.563,1.989c-5.766-0.199-15.305,5.167-22.062,16.496c-4.067,6.824-8.964,21.123-2.784,26.236
		c5.766,4.772,16.1-6.359,19.082-9.936c2.981-3.578,5.564-6.162,6.76-8.149c1.189-1.989,2.386-1.789,2.979,0.197
		c0.596,1.989,3.976,9.737,8.35,9.542c4.37-0.199,7.949-1.193,14.508-12.723c1.194-2.385,3.38-2.683,3.775-0.696
		c0.399,1.989,0.798,7.254,4.971,7.254c7.153,0,15.263-17.407,17.292-21.464c1.789-3.578,4.671-2.585,5.665,0.099
		c1.422,3.843,2.684,16.201,10.434,16.201c7.753,0,13.02-8.25,14.609-10.833C474.603,238.875,473.67,235.577,470.926,237.98
		L470.926,237.98L470.926,237.98L470.926,237.98z M386.652,249.904c-1.789,2.985-5.766,9.542-9.938,8.151
		c-2.187-1.191,0.53-6.955,1.988-9.739c2.186-4.175,8.594-10.92,11.528-9.242C393.012,240.664,388.44,246.923,386.652,249.904
		L386.652,249.904L386.652,249.904L386.652,249.904z"/>
	<path fill="#231F20" d="M348.253,239.487c0,0-16.896-12.323-21.666-17.888c-3.201-3.738-0.992-6.56,0.995-8.149
		c11.924-7.951,30.609-20.274,37.964-39.355c7.088-18.39-3.975-34.384-11.927-36.968c-10.894-3.54-33.987,3.578-45.517,25.044
		c-7.468,13.902-10.933,18.484-11.925,56.249c-0.188,7.152-0.398,15.303-0.398,24.248c0,8.946-0.993,33.193-1.988,37.764
		c-3.775,10.733,7.555,4.373,12.722,0.2c5.169-4.176,4.771-10.438,4.771-13.118c0-3.38,0.199-63.007,1.989-76.325
		c1.11-8.282,2.384-23.652,11.13-36.969c8.743-13.317,17.688-7.95,20.071-5.764c2.389,2.186,5.766,7.751,3.979,19.081
		c-2.775,17.583-23.058,36.77-28.227,42.733c-5.165,5.962-3.974,11.131-0.992,15.304c2.122,2.97,7.354,8.746,12.722,14.112
		c5.365,5.366,4.77,10.138,3.975,13.714c-2.782,10.732-31.801,39.752-31.801,39.752c-6.163,6.561,0.199,17.293,2.384,20.869
		c2.188,3.578,4.971,2.386,6.761-0.596c7.153-13.316,37.961-45.516,37.961-45.516C360.178,256.582,356.402,245.649,348.253,239.487
		L348.253,239.487L348.253,239.487L348.253,239.487z"/>
</g>
</svg>
