<?xml version="1.0" encoding="utf-8"?>
<!-- Generator: Adobe Illustrator 16.0.0, SVG Export Plug-In . SVG Version: 6.00 Build 0)  -->
<!DOCTYPE svg PUBLIC "-//W3C//DTD SVG 1.1//EN" "http://www.w3.org/Graphics/SVG/1.1/DTD/svg11.dtd">
<svg version="1.1" id="Layer_1" xmlns="http://www.w3.org/2000/svg" xmlns:xlink="http://www.w3.org/1999/xlink" x="0px" y="0px"
	 width="500px" height="500px" viewBox="0 0 500 500" enable-background="new 0 0 500 500" xml:space="preserve">
<rect fill="#FFFFFF" stroke="#000000" stroke-miterlimit="10" width="500" height="500"/>
<path d="M144.386,303.25h9.229v-2.485h-6.389v-14.912h-2.84V303.25L144.386,303.25z M188.762,294.731
	c-0.029-2.533-1.049-4.956-2.842-6.746c-1.773-1.421-3.906-2.482-6.391-2.482s-4.971,1.062-6.748,2.482
	c-1.791,1.792-2.81,4.214-2.838,6.746c0,2.483,1.065,4.612,2.838,6.393c1.775,1.772,4.262,2.84,6.748,2.84s4.615-1.067,6.391-2.84
	C187.697,299.344,188.762,297.215,188.762,294.731L188.762,294.731z M185.92,294.731c0,1.772-0.709,3.192-2.129,4.612
	c-1.118,1.148-2.658,1.791-4.26,1.777c-1.773,0-3.55-0.709-4.615-1.777c-1.065-1.42-1.774-2.842-1.774-4.612
	c0-1.775,0.708-3.55,1.774-4.617c1.064-1.421,2.841-2.129,4.615-2.129c1.777,0,3.194,0.708,4.26,2.129
	C185.211,291.182,185.92,292.953,185.92,294.731z M207.577,303.25h2.842v-12.071c0.355,0.71,1.065,1.42,1.777,2.131l11.359,10.65
	v-18.107h-2.842v12.071c-0.355-0.709-1.065-1.422-1.773-2.13l-11.36-10.65v18.106H207.577z M243.076,303.25h3.908
	c3.193,0,5.68,0.353,7.811-1.421c2.13-1.775,3.192-3.907,3.192-7.101c0-3.197-1.062-5.679-3.192-7.101
	c-2.131-1.775-4.617-1.775-7.811-1.775h-3.908V303.25z M245.917,300.765v-12.422h1.07c2.483,0,4.613,0,6.033,1.063
	c1.42,1.419,2.13,2.84,2.13,5.325c0,2.13-0.71,3.903-2.13,4.971c-1.42,1.422-3.55,1.062-6.033,1.062H245.917L245.917,300.765z
	 M294.908,294.731c0-2.487-1.062-4.971-2.842-6.746c-1.775-1.421-3.902-2.482-6.392-2.482c-2.84,0-4.97,1.062-6.741,2.482
	c-1.793,1.79-2.812,4.213-2.841,6.746c0,2.483,1.063,4.612,2.841,6.393c1.774,1.772,4.259,2.84,6.741,2.84
	c2.489,0,4.613-1.067,6.392-2.84C293.846,299.344,294.908,297.215,294.908,294.731L294.908,294.731z M292.07,294.731
	c0,1.772-0.71,3.192-2.13,4.612c-1.062,1.068-2.841,1.777-4.26,1.777c-1.773,0-3.55-0.709-4.617-1.777
	c-1.416-1.42-1.774-2.842-1.774-4.612c0-1.775,0.358-3.55,1.774-4.617c1.067-1.421,2.847-2.129,4.617-2.129
	c1.421,0,3.197,0.708,4.26,2.129C291.358,291.182,292.07,292.953,292.07,294.731z M313.727,303.25h2.841v-12.071
	c0.354,0.71,1.062,1.42,1.422,2.131l11.358,10.65v-18.107h-2.488v12.071c-0.709-0.709-1.062-1.422-1.773-2.13l-11.359-10.65V303.25z
	 M41.078,213.078h7.811v-5.679H28.65v5.679h7.812v36.563h4.615V213.078z M79.062,249.641h16.333v-6.388H83.68v-13.492h11.715v-6.033
	H83.68v-10.651h11.715v-5.679H79.062V249.641z M127.347,249.641h6.389c5.327,0,9.585,0,13.491-4.258
	c3.195-3.551,4.972-9.23,4.972-17.04c0-7.456-1.776-13.136-4.972-17.039c-3.55-3.905-7.811-3.905-13.491-3.905h-6.389V249.641z
	 M132.315,243.253v-29.818h1.418c4.618,0,7.811,0,10.298,2.84c2.128,2.841,3.194,6.745,3.194,12.071
	c0,5.327-1.065,9.585-3.194,12.071c-2.487,3.195-5.68,2.842-10.298,2.842h-1.418V243.253L132.315,243.253z M223.197,249.641h7.457
	c3.905,0,6.746-0.351,8.876-3.192c1.42-2.13,2.482-5.324,2.482-8.875c0-5.682-2.13-9.585-5.679-10.298
	c2.839-1.42,4.259-4.259,4.259-8.874c0-3.907-1.065-7.1-2.838-8.875c-1.778-1.774-4.261-2.132-7.101-2.132h-7.457V249.641
	L223.197,249.641z M227.813,243.607v-13.134h1.777c1.773,0,3.548-0.357,5.324,0.708c1.421,1.065,2.129,3.195,2.129,6.036
	c0,2.129-0.708,4.26-1.772,5.324c-1.065,1.064-3.195,1.064-5.681,1.064h-1.777V243.607L227.813,243.607z M227.813,225.149v-12.071
	h1.777c4.26,0,6.389,1.065,6.389,6.393c0,4.258-2.129,5.679-6.389,5.679H227.813z M292.778,249.641h4.972l-14.2-44.019
	l-14.201,44.019h4.971l3.551-11.002h11.359L292.778,249.641L292.778,249.641z M279.646,232.959l2.842-9.586
	c0.353-1.065,0.708-2.485,1.062-4.615c0.357,2.13,0.708,3.55,1.061,4.615l3.197,9.586H279.646z M326.859,249.641h4.971v-21.652
	l11.361,21.652h6.388l-13.131-23.427l11.713-18.815h-6.032l-10.299,17.394v-17.394h-4.971V249.641L326.859,249.641z
	 M378.689,249.641h16.689v-6.388H383.66v-13.492h11.719v-6.033H383.66v-10.651h11.719v-5.679h-16.689V249.641z M431.589,230.829
	h0.708l9.588,18.816h5.681l-10.296-19.169c4.615-0.712,6.741-4.615,6.741-11.36c0-3.906-1.062-7.456-2.841-9.229
	c-1.775-2.129-4.26-2.486-7.454-2.486h-6.392v42.248h4.26v-18.819H431.589L431.589,230.829z M431.941,225.505v-12.072h1.067
	c4.261,0,6.033,1.065,6.033,6.037c0,5.323-2.129,6.035-6.033,6.035H431.941z M463.89,196.036c-4.258,0-7.803,3.197-7.803,7.456
	c0,3.907,3.545,7.456,7.803,7.456c3.91,0,7.46-3.549,7.46-7.456C471.35,199.233,467.8,196.036,463.89,196.036z M463.541,197.104
	h0.354c3.195,0,5.685,2.84,5.685,6.389c0,3.55-2.489,6.036-5.685,6.036c-3.547,0-6.033-2.485-6.033-6.036
	C457.861,199.944,459.991,197.458,463.541,197.104z M460.699,199.233v8.521h1.42v-3.905h1.422l2.481,3.905h1.422l-2.485-3.905
	c1.422,0,2.131-1.065,2.131-2.485c0-1.421-1.067-2.13-2.841-2.13H460.699L460.699,199.233z M462.119,202.783v-2.484h1.775
	c1.424,0,1.775,0.355,1.775,1.42c0,0.708-0.354,1.067-1.421,1.067h-2.13V202.783L462.119,202.783z"/>
</svg>
