<?xml version="1.0" encoding="utf-8"?>
<!-- Generator: Adobe Illustrator 16.0.0, SVG Export Plug-In . SVG Version: 6.00 Build 0)  -->
<!DOCTYPE svg PUBLIC "-//W3C//DTD SVG 1.1//EN" "http://www.w3.org/Graphics/SVG/1.1/DTD/svg11.dtd">
<svg version="1.1" id="Layer_1" xmlns="http://www.w3.org/2000/svg" xmlns:xlink="http://www.w3.org/1999/xlink" x="0px" y="0px"
	 width="500px" height="500px" viewBox="0 0 500 500" enable-background="new 0 0 500 500" xml:space="preserve">
<rect fill="#FFFFFF" stroke="#000000" stroke-miterlimit="10" width="500" height="500"/>
<g>
	<rect x="35.122" y="325.932" fill="#1B1D4B" width="429.757" height="75.787"/>
	<rect x="35.122" y="98.282" fill="#1B1D4B" width="429.757" height="75.784"/>
	<g>
		<path fill="#FFFFFF" d="M246.327,131.067c1.95-2.611,3.882-5.192,5.809-7.779c3.569-4.791,7.152-9.571,10.69-14.39
			c0.527-0.719,1.059-1.011,1.898-0.972c1.613,0.075,3.234,0.071,4.85,0.001c0.785-0.033,0.975,0.218,0.973,1.062
			c-0.027,8.76-0.014,17.521-0.014,26.281c0,9.335-0.012,18.669,0.016,28.004c0.004,0.873-0.158,1.171-1.01,1.136
			c-1.846-0.076-3.695-0.063-5.541-0.005c-0.756,0.024-0.983-0.171-0.981-1.043c0.031-10.052,0.019-20.104,0.019-30.159
			c0-3.985,0.004-7.97,0.004-11.955c0-0.237,0-0.474,0-0.978c-1.8,2.458-3.455,4.706-5.101,6.961
			c-3.506,4.804-7.006,9.61-10.512,14.413c-0.713,0.977-1.487,0.964-2.245-0.068c-4.951-6.756-9.893-13.523-14.84-20.285
			c-0.195-0.27-0.406-0.526-0.764-0.987c0,0.614,0,0.991,0,1.368c0,13.861-0.01,27.722,0.024,41.582
			c0.002,0.965-0.224,1.193-1.082,1.156c-1.812-0.078-3.629-0.063-5.443-0.005c-0.751,0.024-0.992-0.163-0.988-1.046
			c0.029-11.695,0.019-23.39,0.019-35.083c-0.001-6.458,0.015-12.916-0.022-19.374c-0.005-0.861,0.267-0.991,0.961-0.971
			c1.746,0.052,3.497,0.052,5.244-0.001c0.633-0.019,1.016,0.213,1.403,0.739c5.35,7.24,10.716,14.462,16.081,21.687
			C245.939,130.577,246.112,130.792,246.327,131.067z"/>
		<path fill="#FFFFFF" d="M353.525,120.276c-2.754,3.763-5.355,7.313-7.955,10.865c-2.545,3.481-5.08,6.968-7.631,10.446
			c-0.748,1.021-1.484,1.026-2.229,0.014c-5.037-6.869-10.066-13.744-15.098-20.616c-0.119-0.163-0.252-0.318-0.539-0.683
			c0,2.537,0,4.843,0,7.149c0,11.988-0.008,23.977,0.021,35.965c0.002,0.824-0.205,1.012-0.932,0.988
			c-1.879-0.058-3.762-0.058-5.643,0c-0.729,0.024-0.941-0.167-0.938-0.995c0.033-8.573,0.023-17.15,0.021-25.725
			c0-9.545,0.006-19.089-0.023-28.634c-0.004-0.87,0.182-1.165,1.021-1.126c1.713,0.077,3.432,0.056,5.146,0.005
			c0.627-0.019,1.02,0.196,1.408,0.722c5.336,7.208,10.697,14.389,16.02,21.609c0.551,0.748,0.736,0.727,1.279-0.01
			c5.309-7.183,10.666-14.323,15.98-21.501c0.469-0.631,0.949-0.843,1.668-0.82c1.682,0.054,3.367,0.055,5.049-0.001
			c0.705-0.023,0.869,0.214,0.869,0.963c-0.021,14.613-0.014,29.226-0.012,43.838c0,3.555-0.025,7.109,0.016,10.662
			c0.008,0.805-0.18,1.039-0.93,1.016c-1.879-0.064-3.764-0.071-5.643,0.001c-0.805,0.031-0.949-0.256-0.949-1.07
			c0.025-14.006,0.018-28.012,0.02-42.017C353.525,121.072,353.525,120.822,353.525,120.276z"/>
		<path fill="#FFFFFF" d="M186.227,128.452c-2.05-8.337-6.678-14.416-13.86-18.149c-5.665-2.954-11.652-3.619-17.822-2.692
			c-5.187,0.753-9.949,2.837-13.911,6.629c-8.035,7.757-10.642,17.513-8.434,28.802c1.225,6.253,4.31,11.433,8.886,15.487
			c5.239,4.631,11.358,6.57,18.301,6.599c2.34-0.029,4.895-0.289,7.395-0.956c6.942-1.851,12.528-5.876,16.305-12.476
			C187.208,144.487,188.22,136.673,186.227,128.452z M179.362,138.119c-0.691,9.178-5.798,15.835-13.831,18.556
			c-0.746,0.262-1.518,0.493-2.289,0.608c-1.355,0.202-2.687,0.289-3.643,0.404c-7.182-0.202-12.848-2.865-16.892-8.972
			c-2.501-3.764-3.592-8.048-3.538-12.65c0.027-5.732,1.702-10.827,5.454-14.995c3.113-3.503,6.968-5.47,11.356-6.136
			c5.533-0.839,10.747,0.145,15.35,3.735C177.447,123.415,179.948,130.102,179.362,138.119z"/>
		<path fill="#FFFFFF" d="M86.191,139.831c0,7.83-0.017,15.659,0.022,23.484c0.004,0.924-0.231,1.124-1.033,1.094
			c-1.847-0.07-3.699-0.078-5.543,0.003c-0.847,0.038-0.941-0.315-0.939-1.1c0.022-10.914,0.015-21.825,0.015-32.737
			c0-4.737-0.03-9.478,0.023-14.214c0.012-0.992-0.27-1.148-1.097-1.141c-5.312,0.042-10.626,0.003-15.938,0.042
			c-0.755,0.005-0.948-0.214-0.922-1.016c0.058-1.793,0.037-3.59,0.007-5.385c-0.01-0.641,0.071-0.933,0.783-0.931
			c13.924,0.025,27.851,0.022,41.777,0.004c0.63-0.001,0.863,0.149,0.845,0.878c-0.044,1.83-0.044,3.663,0.002,5.493
			c0.018,0.752-0.196,0.957-0.889,0.954c-5.38-0.032-10.758,0.007-16.137-0.042c-0.859-0.009-0.999,0.269-0.996,1.129
			C86.204,124.173,86.191,132.002,86.191,139.831z"/>
		<path fill="#FFFFFF" d="M393.307,107.948c2.934,0,5.672,0.019,8.41-0.016c0.523-0.007,0.752,0.292,1.02,0.668
			c4.17,5.829,8.348,11.653,12.521,17.477c0.299,0.419,0.6,0.836,0.93,1.293c3.771-5.218,7.5-10.375,11.229-15.533
			c0.814-1.127,1.631-2.253,2.449-3.376c0.18-0.243,0.314-0.522,0.688-0.521c2.822,0.014,5.645,0.009,8.67,0.009
			c-0.918,1.284-1.709,2.405-2.512,3.517c-5.4,7.468-10.799,14.937-16.207,22.394c-0.373,0.51-0.5,1.029-0.5,1.67
			c0.018,9.263,0.002,18.527,0.027,27.79c0.002,0.805-0.129,1.123-0.957,1.088c-1.875-0.076-3.76-0.064-5.641-0.003
			c-0.734,0.025-0.924-0.179-0.922-0.992c0.031-9.3,0.014-18.598,0.033-27.899c0-0.685-0.168-1.208-0.559-1.744
			c-6.049-8.322-12.082-16.66-18.117-24.997C393.711,108.557,393.564,108.331,393.307,107.948z"/>
	</g>
	<g>
		<path fill="#FFFFFF" d="M325.932,348.516c-1.939-1.16-3.76-2.246-5.688-3.021c-4.588-1.85-9.248-2.826-14.127-1.984
			c-7.066,1.217-13.326,8.637-14.238,16.967c-0.547,4.998-0.037,9.764,2.201,14.129c2.629,5.127,6.602,8.035,11.506,9.273
			c4.521,1.143,8.949,0.436,13.318-1.115c1.32-0.467,1.314-0.477,1.314-2.135c-0.004-2.861-0.029-5.719,0.006-8.576
			c0.01-0.703-0.178-0.852-0.732-0.844c-2.459,0.031-4.918-0.008-7.377,0.027c-0.574,0.01-0.744-0.178-0.73-0.861
			c0.039-1.826,0.029-3.654,0.002-5.479c-0.008-0.547,0.129-0.697,0.59-0.695c4.771,0.018,9.543,0.021,14.314-0.002
			c0.492-0.002,0.564,0.211,0.564,0.713c-0.012,7.203-0.012,14.406,0.002,21.609c0.002,0.49-0.137,0.693-0.518,0.896
			c-6.264,3.303-12.828,4.762-19.65,4.055c-6.928-0.721-12.822-4.037-17.174-10.621c-3.242-4.904-4.689-10.553-4.684-16.723
			c0.002-6.402,1.605-12.189,4.982-17.248c3.434-5.141,7.902-8.398,13.277-9.926c6.906-1.961,13.566-0.742,20.061,2.338
			c0.756,0.359,1.508,0.746,2.275,1.07c0.4,0.17,0.52,0.436,0.514,0.92C325.924,343.627,325.932,345.971,325.932,348.516z"/>
		<path fill="#FFFFFF" d="M63.156,363.738c0-8.639,0.015-17.281-0.022-25.922c-0.004-0.934,0.207-1.139,0.961-1.104
			c1.608,0.072,3.222,0.08,4.83-0.002c0.79-0.041,0.881,0.314,0.879,1.117c-0.023,7.164,0.004,14.33-0.027,21.496
			c-0.003,0.834,0.194,1,0.859,0.998c7.993-0.029,15.985-0.031,23.979,0.002c0.705,0.002,0.922-0.154,0.917-1.043
			c-0.036-7.172-0.005-14.34-0.039-21.51c-0.003-0.875,0.2-1.086,0.92-1.057c1.668,0.064,3.338,0.043,5.007,0.008
			c0.528-0.01,0.756,0.082,0.754,0.818c-0.018,17.51-0.017,35.02-0.001,52.529c0.001,0.686-0.163,0.861-0.73,0.85
			c-1.727-0.043-3.454-0.053-5.181,0.002c-0.635,0.02-0.764-0.221-0.763-0.928c0.022-7.203,0.001-14.406,0.031-21.611
			c0.005-0.826-0.128-1.086-0.885-1.082c-7.993,0.039-15.985,0.037-23.977,0.002c-0.739-0.002-0.899,0.211-0.894,1.072
			c0.034,7.199,0.01,14.398,0.029,21.598c0.001,0.678-0.093,0.971-0.752,0.949c-1.728-0.057-3.456-0.045-5.183-0.002
			c-0.567,0.012-0.72-0.16-0.72-0.85c0.023-8.777,0.017-17.555,0.017-26.332C63.161,363.738,63.159,363.738,63.156,363.738z"/>
		<path fill="#FFFFFF" d="M436.441,390.168c-2.572-4.139-5.027-8.361-7.293-12.75c-2.357-4.559-4.812-9.059-8.775-12.254
			c0.377-0.221,0.637-0.359,0.895-0.5c3.871-2.223,6.137-5.779,6.656-10.863c0.66-6.334-1.582-11.779-6.088-14.695
			c-2.785-1.809-5.83-2.363-8.969-2.363c-3.539-0.027-7.078,0.029-10.619-0.027c-0.754-0.027-0.943,0.195-0.943,1.111
			c0.025,15.947,0,31.895,0,47.867c0,1.447,0.049,2.893,0,4.338c-0.023,0.748,0.189,0.914,0.779,0.889
			c1.697-0.055,3.398-0.055,5.096,0c0.686,0.025,0.805-0.223,0.805-0.973c-0.025-6.754-0.025-13.504-0.025-20.283
			c0-2.277,0.025-2.221,1.959-2.305c2.881-0.111,5.264,1,7.221,3.502c0.496,0.609,0.99,1.248,1.463,1.887
			c3.305,4.725,5.852,10.031,8.684,15.113c0.543,1.002,0.922,2.279,1.676,2.863c0.803,0.611,1.982,0.141,3.02,0.168
			c1.582,0.027,3.162,0,4.887,0C436.654,390.557,436.559,390.363,436.441,390.168z M413.74,360.275
			c-1.721,0.166-3.445,0.055-5.168,0.109c-0.541,0.029-0.613-0.25-0.613-0.775c0.025-2.586,0.025-5.168,0.025-7.752
			c0-2.557-0.025-5.113,0-7.67c0-0.332-0.143-0.805,0.398-0.805c2.525,0.055,5.074-0.139,7.6,0.529
			c4.154,1.139,5.664,4.775,5.096,9.5C420.514,358.107,417.447,359.969,413.74,360.275z"/>
		<path fill="#FFFFFF" d="M351.977,363.861c0-8.688,0.01-17.371-0.016-26.059c-0.004-0.824,0.121-1.096,0.885-1.092
			c8.139,0.039,16.279,0.033,24.418,0.006c0.664-0.002,0.908,0.152,0.879,1.002c-0.061,1.686-0.049,3.377,0.002,5.066
			c0.021,0.771-0.168,0.971-0.828,0.969c-5.943-0.035-11.889-0.008-17.83-0.039c-0.664-0.002-0.877,0.162-0.869,0.996
			c0.039,4.756,0.047,9.512-0.004,14.27c-0.012,0.992,0.264,1.139,1.016,1.135c5.65-0.035,11.301-0.008,16.953-0.035
			c0.641-0.002,0.914,0.115,0.877,0.979c-0.066,1.652-0.061,3.311,0,4.963c0.027,0.84-0.143,1.092-0.898,1.086
			c-5.68-0.043-11.357-0.004-17.037-0.043c-0.729-0.008-0.914,0.195-0.906,1.061c0.039,4.963,0.031,9.928,0.002,14.891
			c-0.004,0.734,0.17,0.895,0.775,0.893c6.148-0.029,12.297,0,18.445-0.039c0.746-0.006,0.93,0.229,0.898,1.084
			c-0.062,1.719-0.039,3.443-0.008,5.164c0.014,0.633-0.148,0.803-0.691,0.799c-8.461-0.02-16.922-0.027-25.385,0.008
			c-0.74,0.004-0.682-0.42-0.682-1.004C351.98,381.234,351.977,372.547,351.977,363.861z"/>
		<path fill="#FFFFFF" d="M209.602,363.799c0-8.686,0.007-17.371-0.015-26.057c-0.001-0.787,0.148-1.031,0.854-1.027
			c7.641,0.031,15.281,0.031,22.92,0c0.696-0.002,0.894,0.211,0.867,1.025c-0.055,1.65-0.062,3.309,0.003,4.961
			c0.034,0.9-0.241,1.055-0.942,1.053c-5.385-0.035-10.772-0.004-16.158-0.039c-0.705-0.006-0.939,0.158-0.931,1.051
			c0.042,4.238,0.046,8.479-0.002,12.717c-0.01,0.967,0.156,1.271,1.036,1.262c5.355-0.055,10.713-0.01,16.069-0.047
			c0.728-0.004,0.958,0.213,0.924,1.084c-0.058,1.65-0.051,3.309,0,4.959c0.023,0.771-0.153,0.982-0.82,0.98
			c-5.416-0.035-10.831,0-16.246-0.043c-0.77-0.008-0.966,0.205-0.963,1.125c0.036,7.688,0.007,15.371,0.04,23.057
			c0.003,0.867-0.182,1.098-0.912,1.064c-1.637-0.07-3.279-0.061-4.917-0.002c-0.659,0.023-0.825-0.186-0.824-0.965
			C209.611,381.238,209.602,372.518,209.602,363.799z"/>
		<path fill="#FFFFFF" d="M163.229,363.803c0-8.67,0.008-17.342-0.014-26.012c-0.003-0.824,0.143-1.117,0.9-1.08
			c1.665,0.078,3.335,0.051,5.003,0.01c0.558-0.016,0.744,0.146,0.744,0.84c-0.017,8.641-0.007,17.279-0.007,25.92
			c0,6.504,0,13.014-0.023,19.518c-0.004,0.715,0.158,0.912,0.774,0.91c6.379-0.027,12.758-0.006,19.137-0.035
			c0.706-0.004,0.967,0.16,0.93,1.057c-0.068,1.648-0.054,3.307-0.007,4.957c0.022,0.787-0.143,1.043-0.859,1.037
			c-5.501-0.039-11.002-0.021-16.502-0.021c-3.104,0-6.204-0.02-9.305,0.018c-0.6,0.006-0.783-0.16-0.781-0.898
			c0.024-8.738,0.013-17.479,0.013-26.219H163.229z"/>
		<path fill="#FFFFFF" d="M263.926,363.807c0,8.68-0.012,17.361,0.02,26.043c0.003,0.867-0.191,1.102-0.916,1.072
			c-1.666-0.062-3.336-0.043-5.005-0.008c-0.538,0.014-0.747-0.105-0.747-0.826c0.018-17.504,0.018-35.008,0.001-52.516
			c0-0.672,0.149-0.869,0.726-0.854c1.726,0.045,3.455,0.053,5.18-0.004c0.649-0.02,0.755,0.254,0.755,0.945
			C263.918,346.375,263.924,355.092,263.926,363.807z"/>
		<path fill="#FFFFFF" d="M136.115,363.816c0,8.652-0.017,17.305,0.022,25.957c0.004,0.98-0.248,1.184-1.017,1.148
			c-1.609-0.066-3.222-0.055-4.831,0c-0.618,0.02-0.77-0.189-0.768-0.908c0.019-12.848,0.016-25.693,0.012-38.541
			c0-4.615,0.014-9.229-0.014-13.846c-0.003-0.711,0.143-0.932,0.768-0.912c1.637,0.057,3.281,0.088,4.917-0.008
			c0.834-0.049,0.927,0.312,0.925,1.154C136.105,346.514,136.115,355.166,136.115,363.816z"/>
	</g>
	<rect x="250.161" y="174.279" fill="#D41F36" width="214.718" height="151.652"/>
</g>
</svg>
