<?xml version="1.0" encoding="utf-8"?>
<!-- Generator: Adobe Illustrator 16.0.0, SVG Export Plug-In . SVG Version: 6.00 Build 0)  -->
<!DOCTYPE svg PUBLIC "-//W3C//DTD SVG 1.1//EN" "http://www.w3.org/Graphics/SVG/1.1/DTD/svg11.dtd">
<svg version="1.1" id="Layer_1" xmlns="http://www.w3.org/2000/svg" xmlns:xlink="http://www.w3.org/1999/xlink" x="0px" y="0px"
	 width="500px" height="500px" viewBox="0 0 500 500" enable-background="new 0 0 500 500" xml:space="preserve">
<rect fill="#FFFFFF" stroke="#000000" stroke-miterlimit="10" width="500" height="500"/>
<g>
	<path d="M100.429,208.503l-34.711-106.34h14.83l16.566,52.381c4.576,14.357,8.521,27.295,11.36,39.759h0.316
		c2.997-12.307,7.415-25.717,12.147-39.602l17.986-52.538h14.674l-38.024,106.34H100.429z"/>
	<path d="M189.574,102.163v106.34h-13.727v-106.34H189.574z"/>
	<path d="M279.347,158.646h-41.335v38.339h46.069v11.518h-59.796v-106.34h57.429v11.518h-43.702v33.605h41.335V158.646z"/>
	<path d="M331.412,208.503l-26.978-106.34h14.515l12.621,53.801c3.154,13.254,5.995,26.506,7.889,36.762h0.315
		c1.737-10.571,5.05-23.193,8.678-36.919l14.2-53.644h14.357l12.938,53.958c2.997,12.623,5.838,25.244,7.415,36.446h0.315
		c2.209-11.675,5.207-23.509,8.52-36.761l14.043-53.644h14.042l-30.135,106.34H389.79l-13.411-55.379
		c-3.314-13.569-5.521-23.981-6.943-34.71h-0.315c-1.893,10.57-4.259,20.983-8.203,34.71l-15.147,55.379H331.412z"/>
	<path d="M146.025,364.389l-11.044,33.448h-14.199l36.131-106.34h16.566l36.288,106.34h-14.673l-11.36-33.448H146.025z
		 M180.895,353.66l-10.413-30.608c-2.367-6.941-3.944-13.253-5.522-19.406h-0.315c-1.578,6.311-3.313,12.779-5.364,19.248
		l-10.414,30.767H180.895z"/>
	<path d="M236.118,291.497h13.727v94.822h45.439v11.518h-59.166V291.497z"/>
	<path d="M321.316,291.497h13.728v94.822h45.438v11.518h-59.165V291.497z"/>
</g>
</svg>
