<?xml version="1.0" encoding="utf-8"?>
<!-- Generator: Adobe Illustrator 16.0.0, SVG Export Plug-In . SVG Version: 6.00 Build 0)  -->
<!DOCTYPE svg PUBLIC "-//W3C//DTD SVG 1.1//EN" "http://www.w3.org/Graphics/SVG/1.1/DTD/svg11.dtd">
<svg version="1.1" id="Layer_1" xmlns="http://www.w3.org/2000/svg" xmlns:xlink="http://www.w3.org/1999/xlink" x="0px" y="0px"
	 width="500px" height="500px" viewBox="0 0 500 500" enable-background="new 0 0 500 500" xml:space="preserve">
<rect fill="#FFFFFF" stroke="#000000" stroke-miterlimit="10" width="500" height="500"/>
<g>
	<path d="M161.423,305.876c-12.583,0-24.617-7.047-32.409-16.674c-8.88-10.94-13.205-25.081-13.205-39.065
		c0-13.438,3.974-26.955,12.19-37.666c8.104-10.516,20.294-18.034,33.852-18.034c12.465,0,24.421,7.13,32.096,16.632
		c8.843,10.945,13.244,25.123,13.244,39.109c0,13.396-4.013,26.914-12.193,37.625C186.976,298.238,174.86,305.876,161.423,305.876
		L161.423,305.876z M34.985,196.734h37.9v1.088h-9.309l28.278,77.436l23.877-77.436h-9.388v-1.087h20.45v1.087h-9.037
		L84.104,304.859L44.958,197.822h-9.973V196.734z M290.158,194.864v37.199h-0.856c-1.598-7.323-3.856-14.451-7.79-20.917
		c-4.673-7.558-12.113-16.046-21.812-16.046c-22.28,0-24.306,39.926-24.306,55.155c0,13.636,1.09,27.695,6.036,40.472
		c3.466,8.959,8.49,13.357,17.802,13.357c7.398,0,15.27-3.739,19.201-10.168c1.016-1.676,1.092-3.543,1.092-5.45v-28.75h-9.735
		v-1.126h35.642v1.126h-8.337v43.003h-0.735c-2.104-3.505-5.418-5.804-9.66-5.804c-3.08,0-6.08,1.092-8.762,2.571l-2.418,1.324
		c-5.453,2.416-10.676,4.164-16.711,4.164c-27.654,0-42.378-29.483-42.378-53.942c0-17.88,6.817-37.007,21.308-48.185
		c6.504-5.026,14.372-8.725,22.747-8.725c3.272,0,6.504,1.011,9.543,2.22l2.224,0.857c2.533,0.936,5.298,1.83,8.021,1.83
		c3.391,0,6.43-2.221,9.037-4.167h0.85V194.864z M300.794,196.734h38.016v1.09h-10.089v82.539c0,12.931,13.32,20.801,24.964,20.801
		c12.544,0,23.1-8.725,23.1-21.539v-81.803h-11.916v-1.09h98.119v38.289h-0.74c-1.13-10.128-3.079-20.528-10.051-28.435
		c-7.047-7.985-16.632-8.765-26.485-8.765H415.08v49.236c2.177,0.232,4.398,0.389,6.622,0.389c13.358,0,16.825-9.191,17.409-20.567
		h0.974v43.196h-0.974c-1.677-10.32-6.231-21.383-18.348-21.383c-1.907,0-3.776,0.117-5.685,0.273v52.661h15.929
		c8.261,0,16.477-3.583,22.32-9.347c4.983-4.906,8.454-11.295,9.661-18.189c0.659-3.855,0.975-7.789,1.168-11.686h0.856v40.312
		h-76.694v-1.092h8.921V197.822h-18.855v82.111c0,16.979-16.126,24.498-31.235,24.498c-17.1,0-35.956-8.295-35.956-27.852v-78.759
		h-10.396v-1.088L300.794,196.734L300.794,196.734z"/>
	<path fill="#FFFFFF" d="M188.125,249.98c0-15.465-5.53-54.105-26.446-54.105c-20.995,0-26.449,38.602-26.449,54.105
		c0,15.5,5.493,54.142,26.449,54.142C182.595,304.12,188.125,265.443,188.125,249.98z"/>
</g>
</svg>
